<?xml version="1.0" encoding="UTF-8" standalone="no"?>
<!-- Created with Inkscape (http://www.inkscape.org/) -->

<svg
   xmlns:dc="http://purl.org/dc/elements/1.1/"
   xmlns:cc="http://creativecommons.org/ns#"
   xmlns:rdf="http://www.w3.org/1999/02/22-rdf-syntax-ns#"
   xmlns:svg="http://www.w3.org/2000/svg"
   xmlns="http://www.w3.org/2000/svg"
   xmlns:sodipodi="http://sodipodi.sourceforge.net/DTD/sodipodi-0.dtd"
   xmlns:inkscape="http://www.inkscape.org/namespaces/inkscape"
   width="1153.355"
   height="403.24606"
   id="svg2"
   version="1.1"
   inkscape:version="0.91 r13725"
   sodipodi:docname="libDwm_orange_base.svg"
   inkscape:export-filename="/Users/dwm/src/dwm/mylogos/dwm/path4274.png"
   inkscape:export-xdpi="8.9275513"
   inkscape:export-ydpi="8.9275513">
  <defs
     id="defs4">
    <inkscape:perspective
       sodipodi:type="inkscape:persp3d"
       inkscape:vp_x="0 : 179.62303 : 1"
       inkscape:vp_y="0 : 1000 : 0"
       inkscape:vp_z="952.35498 : 179.62303 : 1"
       inkscape:persp3d-origin="476.17749 : 119.74869 : 1"
       id="perspective4347" />
  </defs>
  <sodipodi:namedview
     id="base"
     pagecolor="#ffffff"
     bordercolor="#666666"
     borderopacity="1.0"
     inkscape:pageopacity="0.0"
     inkscape:pageshadow="2"
     inkscape:zoom="1.517634"
     inkscape:cx="520.38542"
     inkscape:cy="285.32461"
     inkscape:document-units="px"
     inkscape:current-layer="layer1"
     showgrid="false"
     inkscape:window-width="1920"
     inkscape:window-height="1178"
     inkscape:window-x="1920"
     inkscape:window-y="0"
     inkscape:window-maximized="1"
     inkscape:snap-page="false"
     fit-margin-top="20"
     fit-margin-left="40"
     fit-margin-right="40"
     fit-margin-bottom="20" />
  <metadata
     id="metadata7">
    <rdf:RDF>
      <cc:Work
         rdf:about="">
        <dc:format>image/svg+xml</dc:format>
        <dc:type
           rdf:resource="http://purl.org/dc/dcmitype/StillImage" />
        <dc:title></dc:title>
      </cc:Work>
    </rdf:RDF>
  </metadata>
  <g
     inkscape:label="Layer 1"
     inkscape:groupmode="layer"
     id="layer1"
     transform="translate(3.8328878,35.840418)">
    <path
       style="fill:#ff7f2a"
       d="M 272.90344,21.384468 A 18.635582,18.09524 0 0 0 254.4132,37.345359 l -0.14453,0 0,210.541151 a 82.85714,80.454682 0 0 0 -0.10156,1.97046 82.85714,80.454682 0 0 0 82.85742,80.45495 82.85714,80.454682 0 0 0 82.85742,-80.45495 82.85714,80.454682 0 0 0 -82.85742,-80.45496 82.85714,80.454682 0 0 0 -45.48437,13.2508 l 0,-145.307451 -0.1543,0 A 18.635582,18.09524 0 0 0 272.90344,21.384468 Z M 337.02453,206.5714 a 44.579231,43.286648 0 0 1 44.58008,43.28557 44.579231,43.286648 0 0 1 -44.58008,43.28747 44.579231,43.286648 0 0 1 -44.57812,-43.28747 44.579231,43.286648 0 0 1 44.57812,-43.28557 z"
       id="path2988"
       inkscape:connector-curvature="0" />
    <g
       id="g5148"
       transform="translate(458,-18)"
       inkscape:export-xdpi="10.772561"
       inkscape:export-ydpi="10.772561">
      <rect
         style="fill:#ff7f2a"
         id="rect7035"
         width="38.563061"
         height="87.696854"
         x="305.99258"
         y="204.58908" />
      <path
         id="path7039"
         transform="translate(-3.8328878,8.1594426)"
         d="m 234.11523,283.70508 a 55.541336,55.541336 0 0 0 27.76954,48.09961 55.541336,55.541336 0 0 0 55.54296,0 55.541336,55.541336 0 0 0 27.76954,-48.09961 l -35.63868,0 a 18.635582,18.635582 0 0 1 -18.58007,17.5664 18.635582,18.635582 0 0 1 -18.59961,-17.5664 l -38.26368,0 z"
         style="fill:#ff7f2a"
         inkscape:connector-curvature="0" />
      <path
         id="path7041"
         transform="translate(-3.8328878,8.1594426)"
         d="m 312.11523,283.70508 a 55.541336,55.541336 0 0 0 27.76954,48.09961 55.541336,55.541336 0 0 0 55.54296,0 55.541336,55.541336 0 0 0 27.76954,-48.09961 l -37.63868,0 a 18.635582,18.635582 0 0 1 -18.58007,17.5664 18.635582,18.635582 0 0 1 -18.59961,-17.5664 l -36.26368,0 z"
         style="fill:#ff7f2a"
         inkscape:connector-curvature="0" />
      <rect
         y="205.10583"
         x="381.73419"
         height="87.696854"
         width="37.787926"
         id="rect7045"
         style="fill:#ff7f2a" />
      <rect
         style="fill:#ff7f2a"
         id="rect7049"
         width="38.30468"
         height="89.523872"
         x="230.25096"
         y="206.33069" />
      <circle
         style="fill:#ff7f2a"
         id="path7051"
         cx="249.40331"
         cy="204.53664"
         r="19.15234" />
      <circle
         id="path7068"
         style="fill:#ff7f2a"
         cx="325.27411"
         cy="204.40746"
         r="19.28153" />
      <circle
         style="fill:#ff7f2a"
         id="path7081"
         cx="400.62817"
         cy="203.76151"
         r="18.893961" />
    </g>
    <g
       id="g5170"
       transform="translate(458,-18)"
       style="fill:#ff7f2a"
       inkscape:export-xdpi="10.772561"
       inkscape:export-ydpi="10.772561">
      <rect
         transform="scale(1,-1)"
         y="-326.20071"
         x="523.99255"
         height="87.696854"
         width="38.563061"
         id="rect7097"
         style="fill:#ff7f2a" />
      <path
         id="path7099"
         transform="translate(-3.8328878,8.1594426)"
         d="m 508.9668,177.24023 a 55.541336,55.541336 0 0 0 -29.08203,7.42579 55.541336,55.541336 0 0 0 -27.76954,48.0996 l 38.27344,0 a 18.635582,18.635582 0 0 1 -0.0469,-0.92968 18.635582,18.635582 0 0 1 18.63672,-18.63672 18.635582,18.635582 0 0 1 18.63476,18.63672 18.635582,18.635582 0 0 1 -0.0332,0.92968 l 35.61719,0 a 55.541336,55.541336 0 0 0 -27.76954,-48.0996 55.541336,55.541336 0 0 0 -26.46093,-7.42579 z"
         style="fill:#ff7f2a"
         inkscape:connector-curvature="0" />
      <path
         id="path7101"
         transform="translate(-3.8328878,8.1594426)"
         d="m 586.9668,177.24023 a 55.541336,55.541336 0 0 0 -29.08203,7.42579 55.541336,55.541336 0 0 0 -27.76954,48.0996 l 36.27344,0 a 18.635582,18.635582 0 0 1 -0.0469,-0.92968 18.635582,18.635582 0 0 1 18.63672,-18.63672 18.635582,18.635582 0 0 1 18.63476,18.63672 18.635582,18.635582 0 0 1 -0.0332,0.92968 l 37.61719,0 a 55.541336,55.541336 0 0 0 -27.76954,-48.0996 55.541336,55.541336 0 0 0 -26.46093,-7.42579 z"
         style="fill:#ff7f2a"
         inkscape:connector-curvature="0" />
      <rect
         transform="scale(1,-1)"
         style="fill:#ff7f2a"
         id="rect7103"
         width="37.787926"
         height="87.696854"
         x="599.73419"
         y="-327.68396" />
      <rect
         transform="scale(1,-1)"
         y="-326.45911"
         x="448.25098"
         height="89.523872"
         width="38.30468"
         id="rect7105"
         style="fill:#ff7f2a" />
      <circle
         transform="scale(1,-1)"
         id="path7107"
         style="fill:#ff7f2a"
         cx="467.40329"
         cy="-328.25317"
         r="19.15234" />
      <circle
         style="fill:#ff7f2a"
         id="path7113"
         transform="scale(1,-1)"
         cx="543.27411"
         cy="-328.38235"
         r="19.28153" />
      <circle
         transform="scale(1,-1)"
         id="path7115"
         style="fill:#ff7f2a"
         cx="618.62817"
         cy="-329.02832"
         r="18.893961" />
    </g>
    <g
       id="g4378"
       transform="matrix(1,0,0,0.96677061,32,-6.4550936)"
       inkscape:export-xdpi="10.772561"
       inkscape:export-ydpi="10.772561">
      <path
         transform="scale(-1,1)"
         style="fill:#ff7f2a"
         d="m -85.539703,48.139935 37.271164,0 0,282.589695 -37.271164,0 z"
         id="rect4364"
         inkscape:connector-curvature="0" />
      <path
         transform="scale(-1,-1)"
         style="fill:#ff7f2a"
         d="m -48.268532,-328.79504 a 18.635582,18.635582 0 0 1 -18.635582,18.63558 18.635582,18.635582 0 0 1 -18.635582,-18.63558 18.635582,18.635582 0 0 1 18.635582,-18.63559 18.635582,18.635582 0 0 1 18.635582,18.63559 z"
         id="circle4366"
         inkscape:connector-curvature="0" />
      <path
         transform="scale(-1,-1)"
         style="fill:#ff7f2a"
         d="m -48.268547,-48.795025 a 18.635582,18.635582 0 0 1 -18.635582,18.635582 18.635582,18.635582 0 0 1 -18.635582,-18.635582 18.635582,18.635582 0 0 1 18.635582,-18.635582 18.635582,18.635582 0 0 1 18.635582,18.635582 z"
         id="circle4368"
         inkscape:connector-curvature="0" />
    </g>
    <path
       inkscape:connector-curvature="0"
       id="circle4370"
       d="m 168.26853,310.79504 a 18.635582,18.635582 0 0 1 18.63558,-18.63558 18.635582,18.635582 0 0 1 18.63559,18.63558 18.635582,18.635582 0 0 1 -18.63559,18.63559 18.635582,18.635582 0 0 1 -18.63558,-18.63559 z"
       style="fill:#ff7f2a" />
    <path
       inkscape:connector-curvature="0"
       id="rect4372"
       d="m 205.5397,198.80554 -37.27116,0 0,113.92408 37.27116,0 z"
       style="fill:#ff7f2a" />
    <path
       inkscape:connector-curvature="0"
       id="circle4374"
       d="m 166.3584,142.79503 a 20.545729,20.545729 0 0 1 20.54573,-20.54573 20.545729,20.545729 0 0 1 20.54573,20.54573 20.545729,20.545729 0 0 1 -20.54573,20.54573 20.545729,20.545729 0 0 1 -20.54573,-20.54573 z"
       style="fill:#ff7f2a" />
    <path
       inkscape:connector-curvature="0"
       id="circle4376"
       d="m 168.26855,198.79503 a 18.635582,18.635582 0 0 1 18.63558,-18.63558 18.635582,18.635582 0 0 1 18.63558,18.63558 18.635582,18.635582 0 0 1 -18.63558,18.63558 18.635582,18.635582 0 0 1 -18.63558,-18.63558 z"
       style="fill:#ff7f2a" />
    <path
       style="opacity:1;fill:#ff7f2a;fill-opacity:1;stroke:none;stroke-width:32;stroke-miterlimit:4;stroke-dasharray:none;stroke-opacity:1"
       d="m 466.83468,24.837851 a 16.566729,17.857883 0 0 0 -16.48961,16.230666 l -0.0764,0 0,266.778453 0.0799,0 a 16.566729,17.857883 0 0 0 -0.0799,1.72564 16.566729,17.857883 0 0 0 16.56601,17.85896 16.566729,17.857883 0 0 0 0.35073,-0.0131 l 0,0.0281 49.5018,0 0,-0.80292 A 144.97056,150.91126 0 0 0 661.32591,175.74822 144.97056,150.91126 0 0 0 516.35559,24.837851 l 0,0.477263 -45.78787,0 a 16.566729,17.857883 0 0 0 -3.73304,-0.477263 z m 16.56774,38.691945 32.95317,0 0,0.41737 A 108.26681,112.70347 0 0 1 623.41562,176.58671 108.26681,112.70347 0 0 1 516.35559,289.24497 l 0,0.17593 -32.95317,0 0,-225.891104 z"
       id="path4274"
       inkscape:connector-curvature="0"
       inkscape:export-xdpi="10.772561"
       inkscape:export-ydpi="10.772561" />
  </g>
</svg>
