<?xml version="1.0" encoding="UTF-8" standalone="no"?>
<!-- Created with Inkscape (http://www.inkscape.org/) -->

<svg
   xmlns:dc="http://purl.org/dc/elements/1.1/"
   xmlns:cc="http://creativecommons.org/ns#"
   xmlns:rdf="http://www.w3.org/1999/02/22-rdf-syntax-ns#"
   xmlns:svg="http://www.w3.org/2000/svg"
   xmlns="http://www.w3.org/2000/svg"
   xmlns:sodipodi="http://sodipodi.sourceforge.net/DTD/sodipodi-0.dtd"
   xmlns:inkscape="http://www.inkscape.org/namespaces/inkscape"
   width="1153.355"
   height="403.24606"
   id="svg2"
   version="1.1"
   inkscape:version="0.91 r13725"
   sodipodi:docname="libDwm_blue_base.svg"
   inkscape:export-filename="/Users/dwm/src/dwm/mylogos/dwm/path4274.png"
   inkscape:export-xdpi="8.9275513"
   inkscape:export-ydpi="8.9275513">
  <defs
     id="defs4">
    <inkscape:perspective
       sodipodi:type="inkscape:persp3d"
       inkscape:vp_x="0 : 179.62303 : 1"
       inkscape:vp_y="0 : 1000 : 0"
       inkscape:vp_z="952.35498 : 179.62303 : 1"
       inkscape:persp3d-origin="476.17749 : 119.74869 : 1"
       id="perspective4347" />
  </defs>
  <sodipodi:namedview
     id="base"
     pagecolor="#ffffff"
     bordercolor="#666666"
     borderopacity="1.0"
     inkscape:pageopacity="0.0"
     inkscape:pageshadow="2"
     inkscape:zoom="1.517634"
     inkscape:cx="800.70141"
     inkscape:cy="285.32461"
     inkscape:document-units="px"
     inkscape:current-layer="layer1"
     showgrid="false"
     inkscape:window-width="1920"
     inkscape:window-height="1100"
     inkscape:window-x="0"
     inkscape:window-y="22"
     inkscape:window-maximized="1"
     inkscape:snap-page="false"
     fit-margin-top="20"
     fit-margin-left="40"
     fit-margin-right="40"
     fit-margin-bottom="20" />
  <metadata
     id="metadata7">
    <rdf:RDF>
      <cc:Work
         rdf:about="">
        <dc:format>image/svg+xml</dc:format>
        <dc:type
           rdf:resource="http://purl.org/dc/dcmitype/StillImage" />
        <dc:title></dc:title>
      </cc:Work>
    </rdf:RDF>
  </metadata>
  <g
     inkscape:label="Layer 1"
     inkscape:groupmode="layer"
     id="layer1"
     transform="translate(3.8328878,35.840418)">
    <path
       style="fill:#ff7f2a"
       d="M 272.90344,21.384468 A 18.635582,18.09524 0 0 0 254.4132,37.345359 l -0.14453,0 0,210.541151 a 82.85714,80.454682 0 0 0 -0.10156,1.97046 82.85714,80.454682 0 0 0 82.85742,80.45495 82.85714,80.454682 0 0 0 82.85742,-80.45495 82.85714,80.454682 0 0 0 -82.85742,-80.45496 82.85714,80.454682 0 0 0 -45.48437,13.2508 l 0,-145.307451 -0.1543,0 A 18.635582,18.09524 0 0 0 272.90344,21.384468 Z M 337.02453,206.5714 a 44.579231,43.286648 0 0 1 44.58008,43.28557 44.579231,43.286648 0 0 1 -44.58008,43.28747 44.579231,43.286648 0 0 1 -44.57812,-43.28747 44.579231,43.286648 0 0 1 44.57812,-43.28557 z"
       id="path2988"
       inkscape:connector-curvature="0" />
    <g
       id="g5148"
       transform="translate(458,-18)"
       inkscape:export-xdpi="10.772561"
       inkscape:export-ydpi="10.772561">
      <rect
         style="fill:#ff7f2a"
         id="rect7035"
         width="38.563061"
         height="87.696854"
         x="305.99258"
         y="204.58908" />
      <path
         id="path7039"
         transform="translate(-3.8328878,8.1594426)"
         d="m 234.11523,283.70508 a 55.541336,55.541336 0 0 0 27.76954,48.09961 55.541336,55.541336 0 0 0 55.54296,0 55.541336,55.541336 0 0 0 27.76954,-48.09961 l -35.63868,0 a 18.635582,18.635582 0 0 1 -18.58007,17.5664 18.635582,18.635582 0 0 1 -18.59961,-17.5664 l -38.26368,0 z"
         style="fill:#ff7f2a"
         inkscape:connector-curvature="0" />
      <path
         id="path7041"
         transform="translate(-3.8328878,8.1594426)"
         d="m 312.11523,283.70508 a 55.541336,55.541336 0 0 0 27.76954,48.09961 55.541336,55.541336 0 0 0 55.54296,0 55.541336,55.541336 0 0 0 27.76954,-48.09961 l -37.63868,0 a 18.635582,18.635582 0 0 1 -18.58007,17.5664 18.635582,18.635582 0 0 1 -18.59961,-17.5664 l -36.26368,0 z"
         style="fill:#ff7f2a"
         inkscape:connector-curvature="0" />
      <rect
         y="205.10583"
         x="381.73419"
         height="87.696854"
         width="37.787926"
         id="rect7045"
         style="fill:#ff7f2a" />
      <rect
         style="fill:#ff7f2a"
         id="rect7049"
         width="38.30468"
         height="89.523872"
         x="230.25096"
         y="206.33069" />
      <circle
         style="fill:#ff7f2a"
         id="path7051"
         cx="249.40331"
         cy="204.53664"
         r="19.15234" />
      <circle
         id="path7068"
         style="fill:#ff7f2a"
         cx="325.27411"
         cy="204.40746"
         r="19.28153" />
      <circle
         style="fill:#ff7f2a"
         id="path7081"
         cx="400.62817"
         cy="203.76151"
         r="18.893961" />
    </g>
    <g
       id="g5170"
       transform="translate(458,-18)"
       style="fill:#ff7f2a"
       inkscape:export-xdpi="10.772561"
       inkscape:export-ydpi="10.772561">
      <rect
         transform="scale(1,-1)"
         y="-326.20071"
         x="523.99255"
         height="87.696854"
         width="38.563061"
         id="rect7097"
         style="fill:#ff7f2a" />
      <path
         id="path7099"
         transform="translate(-3.8328878,8.1594426)"
         d="m 508.9668,177.24023 a 55.541336,55.541336 0 0 0 -29.08203,7.42579 55.541336,55.541336 0 0 0 -27.76954,48.0996 l 38.27344,0 a 18.635582,18.635582 0 0 1 -0.0469,-0.92968 18.635582,18.635582 0 0 1 18.63672,-18.63672 18.635582,18.635582 0 0 1 18.63476,18.63672 18.635582,18.635582 0 0 1 -0.0332,0.92968 l 35.61719,0 a 55.541336,55.541336 0 0 0 -27.76954,-48.0996 55.541336,55.541336 0 0 0 -26.46093,-7.42579 z"
         style="fill:#ff7f2a"
         inkscape:connector-curvature="0" />
      <path
         id="path7101"
         transform="translate(-3.8328878,8.1594426)"
         d="m 586.9668,177.24023 a 55.541336,55.541336 0 0 0 -29.08203,7.42579 55.541336,55.541336 0 0 0 -27.76954,48.0996 l 36.27344,0 a 18.635582,18.635582 0 0 1 -0.0469,-0.92968 18.635582,18.635582 0 0 1 18.63672,-18.63672 18.635582,18.635582 0 0 1 18.63476,18.63672 18.635582,18.635582 0 0 1 -0.0332,0.92968 l 37.61719,0 a 55.541336,55.541336 0 0 0 -27.76954,-48.0996 55.541336,55.541336 0 0 0 -26.46093,-7.42579 z"
         style="fill:#ff7f2a"
         inkscape:connector-curvature="0" />
      <rect
         transform="scale(1,-1)"
         style="fill:#ff7f2a"
         id="rect7103"
         width="37.787926"
         height="87.696854"
         x="599.73419"
         y="-327.68396" />
      <rect
         transform="scale(1,-1)"
         y="-326.45911"
         x="448.25098"
         height="89.523872"
         width="38.30468"
         id="rect7105"
         style="fill:#ff7f2a" />
      <circle
         transform="scale(1,-1)"
         id="path7107"
         style="fill:#ff7f2a"
         cx="467.40329"
         cy="-328.25317"
         r="19.15234" />
      <circle
         style="fill:#ff7f2a"
         id="path7113"
         transform="scale(1,-1)"
         cx="543.27411"
         cy="-328.38235"
         r="19.28153" />
      <circle
         transform="scale(1,-1)"
         id="path7115"
         style="fill:#ff7f2a"
         cx="618.62817"
         cy="-329.02832"
         r="18.893961" />
    </g>
    <g
       id="g4378"
       transform="matrix(1,0,0,0.96677061,32,-6.4550936)"
       inkscape:export-xdpi="10.772561"
       inkscape:export-ydpi="10.772561">
      <path
         transform="scale(-1,1)"
         style="fill:#ff7f2a"
         d="m -85.539703,48.139935 37.271164,0 0,282.589695 -37.271164,0 z"
         id="rect4364"
         inkscape:connector-curvature="0" />
      <path
         transform="scale(-1,-1)"
         style="fill:#ff7f2a"
         d="m -48.268532,-328.79504 a 18.635582,18.635582 0 0 1 -18.635582,18.63558 18.635582,18.635582 0 0 1 -18.635582,-18.63558 18.635582,18.635582 0 0 1 18.635582,-18.63559 18.635582,18.635582 0 0 1 18.635582,18.63559 z"
         id="circle4366"
         inkscape:connector-curvature="0" />
      <path
         transform="scale(-1,-1)"
         style="fill:#ff7f2a"
         d="m -48.268547,-48.795025 a 18.635582,18.635582 0 0 1 -18.635582,18.635582 18.635582,18.635582 0 0 1 -18.635582,-18.635582 18.635582,18.635582 0 0 1 18.635582,-18.635582 18.635582,18.635582 0 0 1 18.635582,18.635582 z"
         id="circle4368"
         inkscape:connector-curvature="0" />
    </g>
    <path
       inkscape:connector-curvature="0"
       id="circle4370"
       d="m 168.26853,310.79504 a 18.635582,18.635582 0 0 1 18.63558,-18.63558 18.635582,18.635582 0 0 1 18.63559,18.63558 18.635582,18.635582 0 0 1 -18.63559,18.63559 18.635582,18.635582 0 0 1 -18.63558,-18.63559 z"
       style="fill:#ff7f2a" />
    <path
       inkscape:connector-curvature="0"
       id="rect4372"
       d="m 205.5397,198.80554 -37.27116,0 0,113.92408 37.27116,0 z"
       style="fill:#ff7f2a" />
    <path
       inkscape:connector-curvature="0"
       id="circle4374"
       d="m 166.3584,142.79503 a 20.545729,20.545729 0 0 1 20.54573,-20.54573 20.545729,20.545729 0 0 1 20.54573,20.54573 20.545729,20.545729 0 0 1 -20.54573,20.54573 20.545729,20.545729 0 0 1 -20.54573,-20.54573 z"
       style="fill:#ff7f2a" />
    <path
       inkscape:connector-curvature="0"
       id="circle4376"
       d="m 168.26855,198.79503 a 18.635582,18.635582 0 0 1 18.63558,-18.63558 18.635582,18.635582 0 0 1 18.63558,18.63558 18.635582,18.635582 0 0 1 -18.63558,18.63558 18.635582,18.635582 0 0 1 -18.63558,-18.63558 z"
       style="fill:#ff7f2a" />
    <path
       style="opacity:1;fill:#ff7f2a;fill-opacity:1;stroke:none;stroke-width:32;stroke-miterlimit:4;stroke-dasharray:none;stroke-opacity:1"
       d="m 466.83468,24.837851 a 16.566729,17.857883 0 0 0 -16.48961,16.230666 l -0.0764,0 0,266.778453 0.0799,0 a 16.566729,17.857883 0 0 0 -0.0799,1.72564 16.566729,17.857883 0 0 0 16.56601,17.85896 16.566729,17.857883 0 0 0 0.35073,-0.0131 l 0,0.0281 49.5018,0 0,-0.80292 A 144.97056,150.91126 0 0 0 661.32591,175.74822 144.97056,150.91126 0 0 0 516.35559,24.837851 l 0,0.477263 -45.78787,0 a 16.566729,17.857883 0 0 0 -3.73304,-0.477263 z m 16.56774,38.691945 32.95317,0 0,0.41737 A 108.26681,112.70347 0 0 1 623.41562,176.58671 108.26681,112.70347 0 0 1 516.35559,289.24497 l 0,0.17593 -32.95317,0 0,-225.891104 z"
       id="path4274"
       inkscape:connector-curvature="0"
       inkscape:export-xdpi="10.772561"
       inkscape:export-ydpi="10.772561" />
    <path
       style="opacity:1;fill:#0078f2;fill-opacity:1;fill-rule:nonzero;stroke:none;stroke-width:38;stroke-miterlimit:4;stroke-dasharray:none;stroke-opacity:1"
       d="m 465.39,362.0059 c -3.59526,-1.30107 -7.37329,-4.95218 -9.23736,-8.92706 l -1.72515,-3.67865 0,-137.3849 0,-137.384907 1.56134,-3.453825 c 1.70824,-3.778775 5.5715,-7.683386 9.03299,-9.12969 3.29353,-1.376125 61.31548,-1.329026 72.44931,0.05881 24.12716,3.007458 47.29559,12.388819 67.19021,27.206665 7.2821,5.423828 20.11105,17.765877 25.83374,24.853267 17.84493,22.10042 29.1046,48.63624 33.27154,78.41152 1.24154,8.8716 1.04436,31.31445 -0.35604,40.52361 -7.87553,51.79008 -38.22094,93.85085 -83.30209,115.46226 -15.73949,7.54534 -31.61205,11.64786 -51.67742,13.35685 -14.56105,1.24018 -59.68165,1.30177 -63.04107,0.0861 z m 65.16008,-37.35005 c 23.68199,-2.94245 44.26956,-12.59947 61.21984,-28.71638 18.14705,-17.25484 29.23516,-37.96288 34.10771,-63.69927 0.87009,-4.59578 1.14389,-9.47779 1.13426,-20.22491 -0.0115,-12.81189 -0.18079,-14.9582 -1.77025,-22.44175 -7.50051,-35.31408 -28.8424,-63.63418 -59.4566,-78.89726 -17.91766,-8.93305 -31.00597,-11.334833 -61.77379,-11.335831 l -16.9672,-5.51e-4 0,113.004852 0,113.00484 18.96125,0 c 10.42868,0 21.47383,-0.31218 24.54478,-0.69374 z"
       id="path4162"
       inkscape:connector-curvature="0"
       transform="translate(-3.8328878,-35.840418)" />
    <path
       style="opacity:1;fill:#0078f2;fill-opacity:1;fill-rule:nonzero;stroke:none;stroke-width:38;stroke-miterlimit:4;stroke-dasharray:none;stroke-opacity:1"
       d="m 334.50398,365.46804 c -33.13123,-2.26358 -61.75598,-24.13916 -72.13882,-55.12988 -4.14351,-12.36755 -3.96649,-6.67228 -3.96649,-127.61376 0,-122.125393 -0.31785,-113.412575 4.33572,-118.84922 1.25808,-1.469789 3.90426,-3.463387 5.88039,-4.430217 3.16755,-1.549743 4.19925,-1.727237 8.71372,-1.499124 3.10359,0.156823 6.07581,0.724569 7.54523,1.441271 3.42803,1.672009 7.07249,5.415086 8.70201,8.937493 1.38834,3.001082 1.3936,3.258201 1.5689,76.685527 l 0.17589,73.67435 4.8064,-2.65319 c 6.57632,-3.63021 15.30096,-6.89429 23.1754,-8.67042 8.60045,-1.93988 25.44269,-2.11341 33.60494,-0.34624 30.44533,6.59161 53.2224,26.44047 62.54385,54.50325 3.07954,9.27114 3.90779,15.75402 3.50819,27.45922 -0.52125,15.26844 -4.42985,27.58524 -12.74276,40.15516 -4.62,6.98585 -15.27052,17.77911 -21.82465,22.11714 -16.39454,10.85114 -34.24374,15.56075 -53.88792,14.21864 z m 15.34767,-37.21018 c 27.98617,-5.75972 43.45986,-35.08075 31.872,-60.39413 -4.10004,-8.95643 -11.15181,-16.08303 -20.67383,-20.89322 -7.28487,-3.68007 -13.47124,-4.90537 -22.52423,-4.46127 -12.50295,0.61334 -20.55298,4.16648 -29.42912,12.98949 -9.31074,9.255 -12.779,17.51014 -12.73658,30.31564 0.0213,6.42256 0.29705,8.40263 1.80921,12.99029 6.98855,21.20212 29.48375,34.02184 51.68255,29.4532 z"
       id="path4164"
       inkscape:connector-curvature="0"
       transform="translate(-3.8328878,-35.840418)" />
    <path
       style="opacity:1;fill:#0078f2;fill-opacity:1;fill-rule:nonzero;stroke:none;stroke-width:38;stroke-miterlimit:4;stroke-dasharray:none;stroke-opacity:1"
       d="m 184.84474,364.1257 c -3.92817,-1.34028 -8.35348,-5.33335 -10.44672,-9.42636 l -1.98846,-3.88813 0,-59.67888 c 0,-57.1172 0.0539,-59.81865 1.25576,-62.93485 5.6511,-14.65226 26.24452,-15.83257 33.35499,-1.91174 l 1.62987,3.19094 0,61.27959 0,61.2796 -1.42971,2.67055 c -1.81387,3.38812 -5.07699,6.61644 -8.4541,8.36396 -3.05463,1.58064 -10.68641,2.15917 -13.92163,1.05532 z"
       id="path4166"
       inkscape:connector-curvature="0"
       transform="translate(-3.8328878,-35.840418)" />
    <path
       style="opacity:1;fill:#0078f2;fill-opacity:1;fill-rule:nonzero;stroke:none;stroke-width:38;stroke-miterlimit:4;stroke-dasharray:none;stroke-opacity:1"
       d="m 183.56134,197.52186 c -7.69457,-3.05317 -12.79908,-10.40757 -12.79908,-18.44046 0,-6.42155 1.52817,-10.20393 5.88145,-14.55721 4.35329,-4.35329 8.13566,-5.88146 14.55721,-5.88146 3.58095,0 5.13534,0.37254 8.43579,2.0218 15.06763,7.52938 14.9538,28.85423 -0.19317,36.18675 -4.47005,2.16392 -11.38311,2.4558 -15.8822,0.67058 z"
       id="path4168"
       inkscape:connector-curvature="0"
       transform="translate(-3.8328878,-35.840418)" />
    <path
       style="opacity:1;fill:#0078f2;fill-opacity:1;fill-rule:nonzero;stroke:none;stroke-width:38;stroke-miterlimit:4;stroke-dasharray:none;stroke-opacity:1"
       d="m 96.885606,363.97513 c -5.708742,-2.04002 -9.826651,-6.1103 -11.678492,-11.54339 -1.024521,-3.00584 -1.097206,-277.231991 -0.07446,-280.914587 0.967643,-3.484178 4.420754,-7.728418 8.177534,-10.051057 2.964096,-1.832559 3.695886,-1.990882 9.20213,-1.990882 4.47499,0 6.59273,0.303847 8.40642,1.206129 3.44884,1.715739 7.08008,5.455091 8.70201,8.961101 l 1.39302,3.011178 0,139.361668 0,139.36166 -1.53776,3.12245 c -1.92706,3.91292 -6.49917,7.99226 -10.47674,9.34755 -3.64869,1.24323 -8.83961,1.29816 -12.113664,0.12818 z"
       id="path4170"
       inkscape:connector-curvature="0"
       transform="translate(-3.8328878,-35.840418)" />
    <path
       style="opacity:1;fill:#0078f2;fill-opacity:1;fill-rule:nonzero;stroke:none;stroke-width:38;stroke-miterlimit:4;stroke-dasharray:none;stroke-opacity:1"
       d="m 736.44542,363.79328 c -18.47446,-3.94164 -34.08906,-17.41085 -40.47774,-34.91626 -1.04582,-2.86562 -2.23793,-6.98131 -2.64913,-9.14599 -0.96107,-5.05934 -0.98441,-99.56788 -0.0255,-103.12911 1.44458,-5.36474 7.42531,-10.94279 13.49079,-12.58246 8.13976,-2.20041 17.56167,2.41285 21.57889,10.56571 l 1.49345,3.03094 0.32946,48.10119 0.32947,48.10119 1.53775,3.12245 c 4.15247,8.43166 14.29775,12.43103 23.54298,9.28087 4.23312,-1.44237 9.49379,-6.64794 11.20846,-11.09108 1.20527,-3.12318 1.27621,-5.64765 1.40683,-50.07089 0.15437,-52.49614 -0.0739,-49.9822 5.04211,-55.5324 3.57932,-3.88311 7.05044,-5.54858 12.3583,-5.92962 6.23952,-0.44792 10.48428,1.10154 14.7766,5.39385 5.83642,5.83642 5.57335,3.20567 5.57335,55.73503 0,50.69547 -0.0561,49.94814 4.16508,55.48249 1.37797,1.80663 3.68749,3.6223 6.40759,5.03742 3.96128,2.06085 4.59205,2.19296 9.19494,1.92589 7.81824,-0.45363 13.14645,-3.97313 16.22054,-10.71432 l 1.50422,-3.29861 0.19777,-47.77173 0.19778,-47.77173 1.51632,-3.2946 c 3.26729,-7.099 9.3842,-11.11685 16.93345,-11.12261 7.49687,-0.006 13.34895,3.55342 16.96274,10.31646 l 1.48704,2.78291 0,50.40741 c 0,47.50519 -0.0727,50.69132 -1.2618,55.33847 -1.85873,7.26379 -4.035,12.21476 -7.99463,18.18752 -15.04124,22.68847 -44.57094,30.98283 -69.22735,19.44471 -5.03479,-2.35607 -9.61316,-5.36839 -12.90153,-8.48851 l -2.43105,-2.30667 -3.2455,2.71729 c -13.11145,10.97752 -31.13757,15.63072 -47.24171,12.19479 z"
       id="path4172"
       inkscape:connector-curvature="0"
       transform="translate(-3.8328878,-35.840418)" />
    <path
       style="opacity:1;fill:#0078f2;fill-opacity:1;fill-rule:nonzero;stroke:none;stroke-width:38;stroke-miterlimit:4;stroke-dasharray:none;stroke-opacity:1"
       d="m 1001.7529,364.79631 c -5.69442,-0.84357 -11.50371,-5.34878 -14.14914,-10.97294 -1.0527,-2.23801 -1.17888,-6.60026 -1.48117,-51.20653 l -0.33044,-48.76011 -1.55345,-3.43545 c -0.85439,-1.8895 -2.94492,-4.73702 -4.64561,-6.32783 -9.34188,-8.73823 -24.03696,-5.75792 -29.8572,6.05535 l -1.50221,3.04901 -0.32946,49.08957 -0.32946,49.08957 -1.53776,3.12245 c -3.32581,6.75313 -10.58194,10.83595 -18.17484,10.22646 -6.74629,-0.54153 -11.95419,-3.90231 -15.24052,-9.83507 l -1.94642,-3.51384 -0.18145,-48.04278 c -0.19992,-52.93327 -0.0925,-54.76495 3.8018,-64.83557 1.07797,-2.78762 3.1773,-6.9269 4.66517,-9.19841 18.653,-28.4772 56.43267,-34.24519 82.45176,-12.58827 l 3.1008,2.58098 4.8062,-3.73904 c 5.535,-4.30599 14.6108,-8.79769 21.2792,-10.53128 3.4102,-0.88655 6.9311,-1.18888 13.5079,-1.15987 7.6789,0.0339 9.6891,0.27973 14.6988,1.79777 10.086,3.05623 17.0522,7.27296 24.2817,14.69794 5.1611,5.30073 8.9128,10.95006 11.6477,17.53922 4.0528,9.76462 4.0724,10.07208 4.0836,64.06568 0.01,48.85709 0,49.11212 -1.413,52.40409 -1.9474,4.5269 -6.895,8.88999 -11.6477,10.27164 -8.613,2.50386 -17.1551,-1.09332 -21.5844,-9.08934 l -1.9464,-3.51384 -0.3294,-49.74849 -0.3295,-49.74849 -1.9464,-3.51384 c -3.2864,-5.93276 -8.4943,-9.29355 -15.2405,-9.83507 -7.377,-0.59215 -14.7664,3.44293 -18.2576,9.96983 -1.4547,2.71948 -1.4551,2.73249 -1.7845,52.13919 -0.3255,48.82447 -0.3465,49.45588 -1.7456,52.48246 -3.6486,7.89287 -12.026,12.3206 -20.8405,11.01485 z"
       id="path4174"
       inkscape:connector-curvature="0"
       transform="translate(-3.8328878,-35.840418)" />
  </g>
</svg>
